<?xml version="1.0" encoding="utf-8"?>
<!-- Generator: Adobe Illustrator 19.2.1, SVG Export Plug-In . SVG Version: 6.00 Build 0)  -->
<svg version="1.1" id="Layer_1" xmlns="http://www.w3.org/2000/svg" xmlns:xlink="http://www.w3.org/1999/xlink" x="0px" y="0px"
	 viewBox="0 0 1000 1000" style="enable-background:new 0 0 1000 1000;" xml:space="preserve">
<style type="text/css">
	.st0{fill:#262626;}
</style>
<g>
	<path class="st0" d="M389.9,968L32,383.8c-9.1,37.1-13.9,75.8-13.9,115.6c0,228.3,158.4,419.6,371.4,469.9L389.9,968z"/>
	<path class="st0" d="M596.3,435L701,164.5h0.1c4.2-12,15.7-20.7,29.1-20.7c17,0,30.8,13.8,30.8,30.9c0,4.3-0.9,8.4-2.4,12.1l0,0
		L657.3,448.7l326,73.7c0.4-7.6,0.5-15.3,0.5-23c0-266.7-216.2-482.8-482.8-482.8c-200.4,0-372.4,122.1-445.4,296.1L596.3,435z"/>
	<path class="st0" d="M637,501.2L451.7,979.8c16.2,1.6,32.6,2.5,49.2,2.5c239.9,0,438.9-174.9,476.5-404.1L637,501.2z"/>
</g>
<polygon class="st0" points="103.5,380.6 576,487.4 418.4,894.6 "/>
</svg>
