<?xml version="1.0" encoding="utf-8"?>
<!-- Generator: Adobe Illustrator 19.2.1, SVG Export Plug-In . SVG Version: 6.00 Build 0)  -->
<svg version="1.1" id="Layer_1" xmlns="http://www.w3.org/2000/svg" xmlns:xlink="http://www.w3.org/1999/xlink" x="0px" y="0px"
	 viewBox="0 0 1000 1000" style="enable-background:new 0 0 1000 1000;" xml:space="preserve">
<style type="text/css">
	.st0{fill:#262626;}
	.st1{fill:none;}
	.st2{fill:#FFFFFF;}
</style>
<circle class="st0" cx="500.9" cy="499.5" r="482.8"/>
<g>
	<polygon class="st1" points="103.5,380.6 418.4,894.6 576,487.4 	"/>
	<g>
		<path class="st2" d="M758.6,186.8L758.6,186.8c-4.7,11-15.7,18.8-28.5,18.8c-17,0-30.9-13.8-30.9-30.9c0-3.6,0.6-7,1.7-10.2
			l-0.1,0L596.3,435l61,13.8L758.6,186.8z"/>
	</g>
	<g>
		<polygon class="st2" points="418.4,894.6 452.9,950.9 399.5,983.6 389.9,968 369.7,1020.2 427.4,1042.6 637,501.2 576,487.4 		"/>
	</g>
	<polygon class="st2" points="990.4,524.1 657.3,448.7 596.3,435 28.4,306.6 20.8,340.4 9.6,347.2 16.6,358.7 16.1,360.8 
		18.2,361.3 389.9,968 399.5,983.6 452.9,950.9 418.4,894.6 103.5,380.6 576,487.4 637,501.2 978.1,578.4 	"/>
	<path class="st2" d="M730.2,205.6c12.8,0,23.7-7.8,28.4-18.8c1.6-3.7,2.4-7.8,2.4-12.1c0-17.1-13.8-30.9-30.8-30.9
		c-13.5,0-24.9,8.6-29.1,20.7c-1.1,3.2-1.7,6.6-1.7,10.2C699.3,191.8,713.2,205.6,730.2,205.6z"/>
</g>
</svg>
